<?xml version="1.0" standalone="no"?>
<!DOCTYPE svg PUBLIC "-//W3C//DTD SVG 20010904//EN"
 "http://www.w3.org/TR/2001/REC-SVG-20010904/DTD/svg10.dtd">
<svg version="1.0" xmlns="http://www.w3.org/2000/svg"
 width="980.000000pt" height="982.000000pt" viewBox="0 0 980.000000 982.000000"
 preserveAspectRatio="xMidYMid meet">

<g transform="translate(0.000000,982.000000) scale(0.100000,-0.100000)"
fill="#000000" stroke="none">
<path d="M4635 9813 c-967 -51 -1905 -393 -2690 -981 -434 -325 -821 -735
-1130 -1197 -248 -372 -422 -726 -565 -1155 -185 -551 -250 -954 -250 -1560 0
-417 18 -630 81 -945 163 -823 515 -1563 1050 -2210 107 -129 475 -497 604
-604 730 -604 1536 -966 2446 -1101 296 -43 436 -54 739 -54 318 0 476 13 760
60 854 142 1655 506 2334 1062 153 125 430 393 561 542 626 715 1026 1569
1169 2500 44 286 51 396 51 755 -1 365 -11 502 -61 798 -166 987 -627 1892
-1334 2621 -633 652 -1444 1113 -2340 1330 -460 112 -980 163 -1425 139z
m-1600 -2258 c39 -8 108 -33 153 -55 244 -117 375 -421 302 -704 -29 -113 -73
-190 -160 -277 -90 -91 -176 -137 -325 -174 -112 -29 -132 -28 -260 12 -158
50 -263 120 -340 228 -229 321 -126 754 219 920 129 62 272 79 411 50z m395
-3530 l0 -1775 -535 0 -535 0 0 1775 0 1775 535 0 535 0 0 -1775z m1770 1518
l0 -256 114 120 c161 169 293 255 491 321 160 53 265 67 500 67 170 -1 233 -5
333 -23 464 -83 699 -311 818 -797 18 -72 27 -149 34 -275 13 -232 28 -893 35
-1480 3 -261 8 -586 11 -723 l6 -247 -556 0 -556 0 0 993 c0 1173 -6 1306 -66
1433 -81 172 -229 233 -533 221 -266 -11 -413 -78 -520 -237 -47 -72 -66 -144
-81 -320 -10 -125 -29 -1270 -30 -1807 l0 -283 -536 0 -536 0 5 1748 c3 961 8
1757 12 1769 4 13 17 23 34 26 14 2 250 5 524 6 l497 1 0 -257z"/>
</g>
</svg>
